HIERARCHY
ROOT hip
{
  OFFSET 0 90.174 2.4664
  CHANNELS 6 Xposition Yposition Zposition Zrotation Xrotation Yrotation
  JOINT abdomen
  {
    OFFSET 0 -1.186 -1.5018
    CHANNELS 6 Xposition Yposition Zposition Zrotation Xrotation Yrotation
    JOINT abdomen2
    {
      OFFSET 0 9.964 0.2134
      CHANNELS 6 Xposition Yposition Zposition Zrotation Xrotation Yrotation
      JOINT chest
      {
        OFFSET 0 13.134 -3.2573
        CHANNELS 6 Xposition Yposition Zposition Zrotation Xrotation Yrotation
        JOINT neck
        {
          OFFSET 0 20.686 -1.6905
          CHANNELS 6 Xposition Yposition Zposition Zrotation Xrotation Yrotation
          JOINT head
          {
            OFFSET 0 7.238 -0.1237
            CHANNELS 6 Xposition Yposition Zposition Zrotation Xrotation Yrotation
            End Site
            {
              OFFSET 0 0 0
            }
          }
        }
        JOINT lCollar
        {
          OFFSET 1.7069 20.075 5.0056
          CHANNELS 6 Xposition Yposition Zposition Zrotation Xrotation Yrotation
          JOINT lShldr
          {
            OFFSET 13.6458 -0.047 -4.849
            CHANNELS 6 Xposition Yposition Zposition Zrotation Xrotation Yrotation
            JOINT lForeArm
            {
              OFFSET 28.3255 -0.9759 2.2888
              CHANNELS 6 Xposition Yposition Zposition Zrotation Xrotation Yrotation
              JOINT lHand
              {
                OFFSET 22.1583 -0.53 10.8316
                CHANNELS 6 Xposition Yposition Zposition Zrotation Xrotation Yrotation
                JOINT lThumb1
                {
                  OFFSET 0.786 0.112 2.5817
                  CHANNELS 6 Xposition Yposition Zposition Zrotation Xrotation Yrotation
                  JOINT lThumb2
                  {
                    OFFSET 0.3601 -0.878 4.2331
                    CHANNELS 6 Xposition Yposition Zposition Zrotation Xrotation Yrotation
                    JOINT lThumb2_End
                    {
                      OFFSET 1.8127 -1.216 2.2227
                      CHANNELS 6 Xposition Yposition Zposition Zrotation Xrotation Yrotation
                      End Site
                      {
                        OFFSET 0.0181 -0.0122 0.0222
                      }
                    }
                  }
                }
                JOINT lCarpal1
                {
                  OFFSET 0.9571 1.114 1.7695
                  CHANNELS 6 Xposition Yposition Zposition Zrotation Xrotation Yrotation
                  JOINT lIndex1
                  {
                    OFFSET 4.1246 0.487 4.1451
                    CHANNELS 6 Xposition Yposition Zposition Zrotation Xrotation Yrotation
                    JOINT lIndex2
                    {
                      OFFSET 3.4052 -1.454 2.7682
                      CHANNELS 6 Xposition Yposition Zposition Zrotation Xrotation Yrotation
                      JOINT lIndex2_End
                      {
                        OFFSET 1.4531 -1.795 1.2713
                        CHANNELS 6 Xposition Yposition Zposition Zrotation Xrotation Yrotation
                        End Site
                        {
                          OFFSET 0.0145 -0.0179 0.0127
                        }
                      }
                    }
                  }
                  JOINT lMid1
                  {
                    OFFSET 5.6954 0.21 2.1184
                    CHANNELS 6 Xposition Yposition Zposition Zrotation Xrotation Yrotation
                    JOINT lMid2
                    {
                      OFFSET 3.9766 -1.54 2.3863
                      CHANNELS 6 Xposition Yposition Zposition Zrotation Xrotation Yrotation
                      JOINT lMid2_End
                      {
                        OFFSET 1.4042 -1.926 1.125
                        CHANNELS 6 Xposition Yposition Zposition Zrotation Xrotation Yrotation
                        End Site
                        {
                          OFFSET 0.014 -0.0193 0.0113
                        }
                      }
                    }
                  }
                }
                JOINT lCarpal2
                {
                  OFFSET 2.0956 0.66 -0.3894
                  CHANNELS 6 Xposition Yposition Zposition Zrotation Xrotation Yrotation
                  JOINT lRing1
                  {
                    OFFSET 5.0395 -0.09 2.4971
                    CHANNELS 6 Xposition Yposition Zposition Zrotation Xrotation Yrotation
                    JOINT lRing2
                    {
                      OFFSET 3.7921 -1.552 1.4806
                      CHANNELS 6 Xposition Yposition Zposition Zrotation Xrotation Yrotation
                      JOINT lRing2_End
                      {
                        OFFSET 1.4655 -1.808 0.9609
                        CHANNELS 6 Xposition Yposition Zposition Zrotation Xrotation Yrotation
                        End Site
                        {
                          OFFSET 0.0147 -0.0181 0.0096
                        }
                      }
                    }
                  }
                  JOINT lPinky1
                  {
                    OFFSET 4.9141 -1.269 0.3591
                    CHANNELS 6 Xposition Yposition Zposition Zrotation Xrotation Yrotation
                    JOINT lPinky2
                    {
                      OFFSET 3.1477 -1.685 0.8462
                      CHANNELS 6 Xposition Yposition Zposition Zrotation Xrotation Yrotation
                      JOINT lPinky2_End
                      {
                        OFFSET 0.8055 -1.585 0.7955
                        CHANNELS 6 Xposition Yposition Zposition Zrotation Xrotation Yrotation
                        End Site
                        {
                          OFFSET 0.0081 -0.0158 0.008
                        }
                      }
                    }
                  }
                }
              }
            }
          }
        }
        JOINT rCollar
        {
          OFFSET -1.7069 20.075 5.0056
          CHANNELS 6 Xposition Yposition Zposition Zrotation Xrotation Yrotation
          JOINT rShldr
          {
            OFFSET -13.6458 -0.047 -4.849
            CHANNELS 6 Xposition Yposition Zposition Zrotation Xrotation Yrotation
            JOINT rForeArm
            {
              OFFSET -28.3255 -0.9759 2.2888
              CHANNELS 6 Xposition Yposition Zposition Zrotation Xrotation Yrotation
              JOINT rHand
              {
                OFFSET -22.1583 -0.53 10.8316
                CHANNELS 6 Xposition Yposition Zposition Zrotation Xrotation Yrotation
                JOINT rThumb1
                {
                  OFFSET -0.786 0.112 2.5817
                  CHANNELS 6 Xposition Yposition Zposition Zrotation Xrotation Yrotation
                  JOINT rThumb2
                  {
                    OFFSET -0.3601 -0.878 4.2331
                    CHANNELS 6 Xposition Yposition Zposition Zrotation Xrotation Yrotation
                    JOINT rThumb2_End
                    {
                      OFFSET -1.8127 -1.216 2.2227
                      CHANNELS 6 Xposition Yposition Zposition Zrotation Xrotation Yrotation
                      End Site
                      {
                        OFFSET -0.0181 -0.0122 0.0222
                      }
                    }
                  }
                }
                JOINT rCarpal1
                {
                  OFFSET -0.9571 1.114 1.7695
                  CHANNELS 6 Xposition Yposition Zposition Zrotation Xrotation Yrotation
                  JOINT rIndex1
                  {
                    OFFSET -4.1246 0.487 4.1451
                    CHANNELS 6 Xposition Yposition Zposition Zrotation Xrotation Yrotation
                    JOINT rIndex2
                    {
                      OFFSET -3.4052 -1.454 2.7682
                      CHANNELS 6 Xposition Yposition Zposition Zrotation Xrotation Yrotation
                      JOINT rIndex2_End
                      {
                        OFFSET -1.4531 -1.795 1.2713
                        CHANNELS 6 Xposition Yposition Zposition Zrotation Xrotation Yrotation
                        End Site
                        {
                          OFFSET -0.0145 -0.018 0.0127
                        }
                      }
                    }
                  }
                  JOINT rMid1
                  {
                    OFFSET -5.6954 0.21 2.1184
                    CHANNELS 6 Xposition Yposition Zposition Zrotation Xrotation Yrotation
                    JOINT rMid2
                    {
                      OFFSET -3.9766 -1.54 2.3863
                      CHANNELS 6 Xposition Yposition Zposition Zrotation Xrotation Yrotation
                      JOINT rMid2_End
                      {
                        OFFSET -1.4042 -1.926 1.125
                        CHANNELS 6 Xposition Yposition Zposition Zrotation Xrotation Yrotation
                        End Site
                        {
                          OFFSET -0.014 -0.0193 0.0113
                        }
                      }
                    }
                  }
                }
                JOINT rCarpal2
                {
                  OFFSET -2.0956 0.66 -0.3894
                  CHANNELS 6 Xposition Yposition Zposition Zrotation Xrotation Yrotation
                  JOINT rRing1
                  {
                    OFFSET -5.0395 -0.09 2.4971
                    CHANNELS 6 Xposition Yposition Zposition Zrotation Xrotation Yrotation
                    JOINT rRing2
                    {
                      OFFSET -3.7921 -1.552 1.4806
                      CHANNELS 6 Xposition Yposition Zposition Zrotation Xrotation Yrotation
                      JOINT rRing2_End
                      {
                        OFFSET -1.4655 -1.808 0.9609
                        CHANNELS 6 Xposition Yposition Zposition Zrotation Xrotation Yrotation
                        End Site
                        {
                          OFFSET -0.0147 -0.0181 0.0096
                        }
                      }
                    }
                  }
                  JOINT rPinky1
                  {
                    OFFSET -4.9141 -1.269 0.3592
                    CHANNELS 6 Xposition Yposition Zposition Zrotation Xrotation Yrotation
                    JOINT rPinky2
                    {
                      OFFSET -3.1477 -1.685 0.8462
                      CHANNELS 6 Xposition Yposition Zposition Zrotation Xrotation Yrotation
                      JOINT rPinky2_End
                      {
                        OFFSET -0.8055 -1.585 0.7955
                        CHANNELS 6 Xposition Yposition Zposition Zrotation Xrotation Yrotation
                        End Site
                        {
                          OFFSET -0.0081 -0.0158 0.008
                        }
                      }
                    }
                  }
                }
              }
            }
          }
        }
      }
    }
  }
  JOINT lThigh
  {
    OFFSET 8.367 -8.2066 0.5982
    CHANNELS 6 Xposition Yposition Zposition Zrotation Xrotation Yrotation
    JOINT lShin
    {
      OFFSET 2.1923 -43.463 -0.4932
      CHANNELS 6 Xposition Yposition Zposition Zrotation Xrotation Yrotation
      JOINT lFoot
      {
        OFFSET 0.7333 -45.8593 -2.6451
        CHANNELS 6 Xposition Yposition Zposition Zrotation Xrotation Yrotation
        End Site
        {
          OFFSET 2.6618 -4.2699 12.3931
        }
      }
    }
  }
  JOINT rThigh
  {
    OFFSET -8.367 -8.2066 0.5982
    CHANNELS 6 Xposition Yposition Zposition Zrotation Xrotation Yrotation
    JOINT rShin
    {
      OFFSET -2.1923 -43.463 -0.4931
      CHANNELS 6 Xposition Yposition Zposition Zrotation Xrotation Yrotation
      JOINT rFoot
      {
        OFFSET -0.7333 -45.8593 -2.6451
        CHANNELS 6 Xposition Yposition Zposition Zrotation Xrotation Yrotation
        End Site
        {
          OFFSET -2.6618 -4.2699 12.3931
        }
      }
    }
  }
}
MOTION
Frames:	4
Frame Time:	0.0333333
0 90.174 2.4664 0 0 -0 0 -1.186 -1.5018 0 0 -0 0 9.964 0.2134 0 0 -0 0 13.134 -3.2573 0 0 -0 0 20.686 -1.6905 0 0 -0 0 7.238 -0.1237 0 0 -0 1.7069 20.075 5.0056 0 0 -0 13.6458 -0.047 -4.849 1.66051 0.0835086 5.75766 28.3255 -0.9759 2.2888 -0.0175111 0.895433 15.7816 22.1583 -0.53 10.8316 7.95139e-016 -1.98785e-016 -0 0.786 0.112 2.5817 5.46658e-016 -3.97569e-016 -0 0.3601 -0.878 4.2331 5.96354e-016 0 -0 1.8127 -1.216 2.2227 3.97569e-016 1.98785e-016 9.54166e-015 0.9571 1.114 1.7695 1.49089e-016 -3.97569e-016 -0 4.1246 0.487 4.1451 6.4605e-016 0 3.18055e-015 3.4052 -1.454 2.7682 5.96354e-016 0 3.18055e-015 1.4531 -1.795 1.2713 8.94531e-016 -1.98785e-016 6.36111e-015 5.6954 0.21 2.1184 6.4605e-016 0 3.18055e-015 3.9766 -1.54 2.3863 5.96354e-016 0 3.18055e-015 1.4042 -1.926 1.125 8.94531e-016 -1.98785e-016 6.36111e-015 2.0956 0.66 -0.3894 1.49089e-016 -3.97569e-016 -0 5.0395 -0.09 2.4971 6.4605e-016 0 3.18055e-015 3.7921 -1.552 1.4806 5.96354e-016 0 3.18055e-015 1.4655 -1.808 0.9609 8.94531e-016 -1.98785e-016 6.36111e-015 4.9141 -1.269 0.3591 6.4605e-016 0 3.18055e-015 3.1477 -1.685 0.8462 5.96354e-016 0 3.18055e-015 0.8055 -1.585 0.7955 8.94531e-016 -1.98785e-016 6.36111e-015 -1.7069 20.075 5.0056 0 0 -0 -13.6458 -0.047 -4.849 -1.4496 0.0636048 -5.0245 -28.3255 -0.9759 2.2888 -1.74811 1.20616 -16.8394 -22.1583 -0.53 10.8316 -1.19271e-015 1.98785e-016 -3.18055e-015 -0.786 0.112 2.5817 -3.97569e-016 1.98785e-016 -3.18055e-015 -0.3601 -0.878 4.2331 -2.98177e-016 1.98785e-016 -3.18055e-015 -1.8127 -1.216 2.2227 -2.98177e-016 3.97569e-016 -0 -0.9571 1.114 1.7695 4.96962e-016 0 -6.36111e-015 -4.1246 0.487 4.1451 -9.93923e-017 3.97569e-016 -0 -3.4052 -1.454 2.7682 -8.94531e-016 5.96354e-016 -0 -1.4531 -1.795 1.2713 -3.97569e-016 3.97569e-016 -0 -5.6954 0.21 2.1184 -9.93923e-017 3.97569e-016 -0 -3.9766 -1.54 2.3863 -8.94531e-016 5.96354e-016 -0 -1.4042 -1.926 1.125 -3.97569e-016 3.97569e-016 -0 -2.0956 0.66 -0.3894 4.96962e-016 0 -6.36111e-015 -5.0395 -0.09 2.4971 -9.93923e-017 3.97569e-016 -0 -3.7921 -1.552 1.4806 -8.94531e-016 5.96354e-016 -0 -1.4655 -1.808 0.9609 -3.97569e-016 3.97569e-016 -0 -4.9141 -1.269 0.3592 -9.93923e-017 3.97569e-016 -0 -3.1477 -1.685 0.8462 -8.94531e-016 5.96354e-016 -0 -0.8055 -1.585 0.7955 -3.97569e-016 3.97569e-016 -0 8.367 -8.2066 0.5982 -4.66115 -1.03232 0.120763 2.1923 -43.463 -0.4932 0.00990601 1.55097 0.177175 0.7333 -45.8593 -2.6451 4.65196 -0.54114 -0.255042 -8.367 -8.2066 0.5982 4.66115 -1.03222 -0.120763 -2.1923 -43.463 -0.4931 -0.00990459 1.5509 -0.177176 -0.7333 -45.8593 -2.6451 -4.65196 -0.541171 0.255041 
1.17115 35.0507 -4.99977 -6.64905e-015 2.99942 180 0 -1.186 -1.5018 -0.308259 -3.65128 -0.546404 2.22045e-016 9.964 0.2134 -0.653473 -7.29938 -1.11594 2.22045e-016 13.134 -3.2573 -0.653473 -7.29938 -1.11594 0 20.686 -1.6905 2.46322e-006 -0.379448 1.88913e-006 0 7.238 -0.1237 -3.55017e-007 -9.12135 -5.54108e-008 1.7069 20.075 5.0056 -13.2739 -0.456493 -16.9842 13.6458 -0.047 -4.849 -133.02 -73.9805 -62.3663 28.3255 -0.9759 2.2888 18.1978 74.9559 3.11843 22.1583 -0.53 10.8316 3.78206 -5.05527 34.0152 0.786 0.112 2.5817 4.9259e-006 -3.69293e-006 -9.56221e-007 0.3601 -0.878 4.2331 -9.08823e-006 5.30165e-006 1.69732e-007 1.8127 -1.216 2.2227 8.32643e-006 -3.45757e-006 -8.15164e-007 0.9571 1.114 1.7695 9.93923e-017 1.98785e-016 -0 4.1246 0.487 4.1451 4.9259e-006 -3.69293e-006 -9.56221e-007 3.4052 -1.454 2.7682 -9.08823e-006 5.30165e-006 1.69732e-007 1.4531 -1.795 1.2713 8.32643e-006 -3.45757e-006 -8.15164e-007 5.6954 0.21 2.1184 4.9259e-006 -3.69293e-006 -9.56221e-007 3.9766 -1.54 2.3863 -9.08823e-006 5.30165e-006 1.69732e-007 1.4042 -1.926 1.125 8.32643e-006 -3.45757e-006 -8.15164e-007 2.0956 0.66 -0.3894 9.93923e-017 1.98785e-016 -0 5.0395 -0.09 2.4971 4.9259e-006 -3.69293e-006 -9.56221e-007 3.7921 -1.552 1.4806 -9.08823e-006 5.30165e-006 1.69732e-007 1.4655 -1.808 0.9609 8.32643e-006 -3.45757e-006 -8.15164e-007 4.9141 -1.269 0.3591 4.9259e-006 -3.69293e-006 -9.56221e-007 3.1477 -1.685 0.8462 -9.08823e-006 5.30165e-006 1.69732e-007 0.8055 -1.585 0.7955 8.32643e-006 -3.45757e-006 -8.15164e-007 -1.7069 20.075 5.0056 4.2846 -9.85878 -26.3474 -13.6458 -0.047 -4.849 -24.6293 -64.2052 -84.7383 -28.3255 -0.9759 2.2888 -13.9979 74.7916 -3.44406 -22.1583 -0.53 10.8316 -47.3883 -4.12245 -3.67487 -0.786 0.112 2.5817 -4.88448e-006 -1.5085e-006 -1.5156e-007 -0.3601 -0.878 4.2331 -2.552e-006 1.6359e-006 3.0015e-006 -1.8127 -1.216 2.2227 -2.17814e-006 -7.24097e-007 5.97916e-006 -0.9571 1.114 1.7695 -3.18055e-015 4.77083e-015 -0 -4.1246 0.487 4.1451 -4.88448e-006 -1.5085e-006 -1.5156e-007 -3.4052 -1.454 2.7682 -2.552e-006 1.6359e-006 3.0015e-006 -1.4531 -1.795 1.2713 -2.17814e-006 -7.24097e-007 5.97916e-006 -5.6954 0.21 2.1184 -4.88448e-006 -1.5085e-006 -1.5156e-007 -3.9766 -1.54 2.3863 -2.552e-006 1.6359e-006 3.0015e-006 -1.4042 -1.926 1.125 -2.17814e-006 -7.24097e-007 5.97916e-006 -2.0956 0.66 -0.3894 -3.18055e-015 4.77083e-015 -0 -5.0395 -0.09 2.4971 -4.88448e-006 -1.5085e-006 -1.5156e-007 -3.7921 -1.552 1.4806 -2.552e-006 1.6359e-006 3.0015e-006 -1.4655 -1.808 0.9609 -2.17814e-006 -7.24097e-007 5.97916e-006 -4.9141 -1.269 0.3592 -4.88448e-006 -1.5085e-006 -1.5156e-007 -3.1477 -1.685 0.8462 -2.552e-006 1.6359e-006 3.0015e-006 -0.8055 -1.585 0.7955 -2.17814e-006 -7.24097e-007 5.97916e-006 8.367 -8.2066 0.5982 35.7089 -17.7257 -46.8788 2.1923 -43.463 -0.4932 -112.708 44.1 147.099 0.7333 -45.8593 -2.6451 28.7158 47.7563 -67.58 -8.367 -8.2066 0.5982 -33.7366 -17.7261 46.0723 -2.1923 -43.463 -0.4931 115.169 43.6419 -149.058 -0.7333 -45.8593 -2.6451 -26.1325 47.2819 64.4062 
1.17208 34.7365 -4.83057 -6.64912e-015 2.99883 180 0 -1.186 -1.5018 -0.308259 -3.65126 -0.546403 2.22045e-016 9.964 0.2134 -0.653473 -7.29939 -1.11594 -2.22045e-016 13.134 -3.2573 -0.653473 -7.29939 -1.11594 0 20.686 -1.6905 -3.32908e-006 -0.511565 -4.48819e-006 0 7.238 -0.1237 6.92131e-008 -9.12135 -7.07005e-007 1.7069 20.075 5.0056 -13.5531 -0.19054 -16.9315 13.6458 -0.047 -4.849 -133.02 -73.9805 -62.3663 28.3255 -0.9759 2.2888 17.9109 74.9772 3.0909 22.1583 -0.53 10.8316 4.60896 -5.22849 32.8039 0.786 0.112 2.5817 1.18537e-007 1.19521e-006 -1.23575e-007 0.3601 -0.878 4.2331 -6.02668e-006 2.87348e-006 -1.66663e-006 1.8127 -1.216 2.2227 1.78177e-007 1.85461e-006 4.12244e-007 0.9571 1.114 1.7695 -1.61513e-015 -3.97569e-016 -1.59028e-015 4.1246 0.487 4.1451 1.18537e-007 1.19521e-006 -1.23575e-007 3.4052 -1.454 2.7682 -6.02668e-006 2.87348e-006 -1.66663e-006 1.4531 -1.795 1.2713 1.78177e-007 1.85461e-006 4.12244e-007 5.6954 0.21 2.1184 1.18537e-007 1.19521e-006 -1.23575e-007 3.9766 -1.54 2.3863 -6.02668e-006 2.87348e-006 -1.66663e-006 1.4042 -1.926 1.125 1.78177e-007 1.85461e-006 4.12244e-007 2.0956 0.66 -0.3894 -1.61513e-015 -3.97569e-016 -1.59028e-015 5.0395 -0.09 2.4971 1.18537e-007 1.19521e-006 -1.23575e-007 3.7921 -1.552 1.4806 -6.02668e-006 2.87348e-006 -1.66663e-006 1.4655 -1.808 0.9609 1.78177e-007 1.85461e-006 4.12244e-007 4.9141 -1.269 0.3591 1.18537e-007 1.19521e-006 -1.23575e-007 3.1477 -1.685 0.8462 -6.02668e-006 2.87348e-006 -1.66663e-006 0.8055 -1.585 0.7955 1.78177e-007 1.85461e-006 4.12244e-007 -1.7069 20.075 5.0056 3.28972 -9.5789 -25.9735 -13.6458 -0.047 -4.849 -24.6215 -63.9551 -85.1448 -28.3255 -0.9759 2.2888 -14.2671 74.9295 -3.22591 -22.1583 -0.53 10.8316 -47.3884 -4.12245 -3.67487 -0.786 0.112 2.5817 3.18055e-015 1.59028e-015 9.54166e-015 -0.3601 -0.878 4.2331 4.28169e-007 -7.08527e-007 2.06948e-007 -1.8127 -1.216 2.2227 1.59028e-015 1.59028e-015 -6.36111e-015 -0.9571 1.114 1.7695 3.18055e-015 1.59028e-015 6.36111e-015 -4.1246 0.487 4.1451 -6.36111e-015 -4.77083e-015 -3.18055e-015 -3.4052 -1.454 2.7682 4.28169e-007 -7.08527e-007 2.06948e-007 -1.4531 -1.795 1.2713 0 7.95139e-015 -0 -5.6954 0.21 2.1184 -6.36111e-015 -4.77083e-015 -3.18055e-015 -3.9766 -1.54 2.3863 4.28169e-007 -7.08527e-007 2.06948e-007 -1.4042 -1.926 1.125 0 7.95139e-015 -0 -2.0956 0.66 -0.3894 3.18055e-015 1.59028e-015 6.36111e-015 -5.0395 -0.09 2.4971 -6.36111e-015 -4.77083e-015 -3.18055e-015 -3.7921 -1.552 1.4806 4.28169e-007 -7.08527e-007 2.06948e-007 -1.4655 -1.808 0.9609 0 7.95139e-015 -0 -4.9141 -1.269 0.3592 -6.36111e-015 -4.77083e-015 -3.18055e-015 -3.1477 -1.685 0.8462 4.28169e-007 -7.08527e-007 2.06948e-007 -0.8055 -1.585 0.7955 0 7.95139e-015 -0 8.367 -8.2066 0.5982 36.1933 -17.8747 -46.7402 2.1923 -43.463 -0.4932 -113.295 44.0244 147.511 0.7333 -45.8593 -2.6451 29.0594 47.2981 -67.9752 -8.367 -8.2066 0.5982 -34.1984 -17.891 45.9423 -2.1923 -43.463 -0.4931 115.767 43.5524 -149.479 -0.7333 -45.8593 -2.6451 -26.4601 46.851 64.7893 
1.17301 34.4223 -4.66131 -6.64912e-015 2.99883 180 0 -1.186 -1.5018 -0.308259 -3.65126 -0.546403 -2.22045e-016 9.964 0.2134 -0.653473 -7.29939 -1.11594 2.22045e-016 13.134 -3.2573 -0.653473 -7.29939 -1.11594 -2.22045e-016 20.686 -1.6905 -3.87053e-006 -0.643744 -2.20438e-006 0 7.238 -0.1237 -3.3118e-008 -9.12135 6.81553e-007 1.7069 20.075 5.0056 -13.8325 0.0752046 -16.8775 13.6458 -0.047 -4.849 -133.02 -73.9805 -62.3663 28.3255 -0.9759 2.2888 17.6205 74.9968 3.06677 22.1583 -0.53 10.8316 5.43464 -5.41966 31.5913 0.786 0.112 2.5817 -2.4888e-009 -1.26992e-007 -1.19619e-006 0.3601 -0.878 4.2331 -4.97761e-009 -2.53984e-007 -2.39238e-006 1.8127 -1.216 2.2227 4.32516e-006 7.17597e-010 -2.28458e-006 0.9571 1.114 1.7695 -1.93815e-015 -3.97569e-016 -0 4.1246 0.487 4.1451 -2.4888e-009 -1.26992e-007 -1.19619e-006 3.4052 -1.454 2.7682 -4.97761e-009 -2.53984e-007 -2.39238e-006 1.4531 -1.795 1.2713 4.32516e-006 7.17596e-010 -2.28458e-006 5.6954 0.21 2.1184 -2.4888e-009 -1.26992e-007 -1.19619e-006 3.9766 -1.54 2.3863 -4.97761e-009 -2.53984e-007 -2.39238e-006 1.4042 -1.926 1.125 4.32516e-006 7.17596e-010 -2.28458e-006 2.0956 0.66 -0.3894 -1.93815e-015 -3.97569e-016 -0 5.0395 -0.09 2.4971 -2.4888e-009 -1.26992e-007 -1.19619e-006 3.7921 -1.552 1.4806 -4.97761e-009 -2.53984e-007 -2.39238e-006 1.4655 -1.808 0.9609 4.32516e-006 7.17596e-010 -2.28458e-006 4.9141 -1.269 0.3591 -2.4888e-009 -1.26992e-007 -1.19619e-006 3.1477 -1.685 0.8462 -4.97761e-009 -2.53984e-007 -2.39238e-006 0.8055 -1.585 0.7955 4.32516e-006 7.17596e-010 -2.28458e-006 -1.7069 20.075 5.0056 2.29217 -9.30503 -25.5945 -13.6458 -0.047 -4.849 -24.6097 -63.7051 -85.548 -28.3255 -0.9759 2.2888 -14.5433 75.0659 -3.00552 -22.1583 -0.53 10.8316 -47.3883 -4.12244 -3.67487 -0.786 0.112 2.5817 1.02336e-006 1.03813e-006 1.1074e-006 -0.3601 -0.878 4.2331 1.41994e-006 8.56372e-007 -5.49281e-008 -1.8127 -1.216 2.2227 9.91754e-007 1.56634e-006 -2.56856e-007 -0.9571 1.114 1.7695 3.18055e-015 3.18055e-015 3.18055e-015 -4.1246 0.487 4.1451 1.02336e-006 1.03813e-006 1.1074e-006 -3.4052 -1.454 2.7682 1.41994e-006 8.56372e-007 -5.49281e-008 -1.4531 -1.795 1.2713 9.91754e-007 1.56634e-006 -2.56856e-007 -5.6954 0.21 2.1184 1.02336e-006 1.03813e-006 1.1074e-006 -3.9766 -1.54 2.3863 1.41994e-006 8.56372e-007 -5.49281e-008 -1.4042 -1.926 1.125 9.91754e-007 1.56634e-006 -2.56856e-007 -2.0956 0.66 -0.3894 3.18055e-015 3.18055e-015 3.18055e-015 -5.0395 -0.09 2.4971 1.02336e-006 1.03813e-006 1.1074e-006 -3.7921 -1.552 1.4806 1.41994e-006 8.56372e-007 -5.49281e-008 -1.4655 -1.808 0.9609 9.91754e-007 1.56634e-006 -2.56856e-007 -4.9141 -1.269 0.3592 1.02336e-006 1.03813e-006 1.1074e-006 -3.1477 -1.685 0.8462 1.41994e-006 8.56372e-007 -5.49281e-008 -0.8055 -1.585 0.7955 9.91754e-007 1.56634e-006 -2.56856e-007 8.367 -8.2066 0.5982 36.6788 -18.0235 -46.5998 2.1923 -43.463 -0.4932 -113.88 43.9458 147.921 0.7333 -45.8593 -2.6451 29.3956 46.8386 -68.3634 -8.367 -8.2066 0.5982 -34.6611 -18.0561 45.8102 -2.1923 -43.463 -0.4931 116.364 43.4599 -149.899 -0.7333 -45.8593 -2.6451 -26.7811 46.419 65.1662 
